<?xml version="1.0" encoding="utf-8"?>
<!-- Generator: Adobe Illustrator 27.5.0, SVG Export Plug-In . SVG Version: 6.00 Build 0)  -->
<svg version="1.1" xmlns="http://www.w3.org/2000/svg" xmlns:xlink="http://www.w3.org/1999/xlink" x="0px" y="0px"
	 viewBox="-125 0 750 500" style="enable-background:new -125 0 750 500;" xml:space="preserve">
<g id="BACKGROUND">
	<rect x="-125" style="fill:#FFFFFF;" width="750" height="500"/>
</g>
<g id="OBJECTS" xmlns:serif="http://www.serif.com/">
	<g>
		<path style="fill:#DEE4FF;" d="M-52.748,286.638c0,0,40.874-245.813,139.49-233.34c130.271,16.477,188.965,122.719,251.363,56.762
			c62.397-65.957,121.81-37.088,160.269-12.933c52.527,32.991,68.826,133.662,47.16,195.605
			c-59.315,169.586-112.507,59.731-177.431,104.204C261.365,470.052-95.778,459.595-52.748,286.638z"/>
		<path style="fill:#DEE4FF;" d="M344.829,66.601c15.303,13.003-23.302,43.71-31.162,48.297
			c-18.389,10.731-52.346,3.363-70.846-16.804c-4.83-5.265-3.533-15.893,12.115-18.533c11.437-1.93,22.816,3.612,34.31,2.035
			C297.267,80.496,332.686,56.283,344.829,66.601L344.829,66.601z"/>
		<path style="fill:#DEE4FF;" d="M-11.526,79.967c-2.068,9.246-1.412,22.692-1.321,22.588c1.555-1.771,3.183-3.5,4.778-5.24
			c3.457-3.774,7.141-7.352,10.85-10.914c6.084-5.841,42.357-33.939,33.222-44.055C31.307,37.147,19.85,42.59,15.32,44.97
			C-1.101,53.598-8.156,64.901-11.526,79.967z"/>
		<path style="fill:#DEE4FF;" d="M451.07,409.326c-5.043-5.503-42.262-21.312-58.663-13.928
			c-9.898,4.456-35.165,19.404-41.15,28.054c-2.258,3.263-5.444,9.561-0.131,12.17c6.584,3.234,16.854,0.284,23.274-1.401
			c12.648-3.32,25.271-7.318,38.578-8.093c9.136-0.532,18.34,0.81,27.448,0.238C448.303,425.871,459.663,418.701,451.07,409.326
			L451.07,409.326z"/>
	</g>
	<g>
		<g>
			<path style="fill:#FDDAC3;" d="M472.581,141.483c0,0-10.582-2.398-23.839,18.009c-7.986,12.292-13.681,18.454-15.205,16.968
				c-1.226-1.196-7.78-19.59-7.3-27.379l-9.064,4.459c0,0,3.175,51.446,13.434,51.3c10.765-0.153,26.258-26.47,26.258-26.47
				L472.581,141.483L472.581,141.483z"/>
			<path style="fill:#FDDAC3;" d="M418.598,154.843c1.786,0.81,7.337,0.617,9.012-7.852c0.566-2.859-0.878-3.77,0.739-8.607
				c0.252-0.755,0.682-2.938-0.008-3.583c-1.547-1.447-4.768,5.346-4.814,5.33c-0.301-0.103-5.093-8.146-7.07-7.972
				c-2.272,0.2,1.454,7.498,1.162,7.616c-0.321,0.129-5.424-6.009-7.628-4.432c-1.507,1.079,3.741,7.415,3.611,7.607
				c-0.049,0.072-6.989-2.98-7.745-1.162c-0.796,1.913,4.771,4.139,5.743,5.572c0.088,0.13-6.112-0.238-5.929,1.4
				c0.109,0.982,4.65,2.351,5.37,2.711C413.932,152.915,415.654,153.509,418.598,154.843L418.598,154.843z"/>
		</g>
		<path style="fill:#D9A140;" d="M519.113,111.61c0,0,28.657-9.761,21.329,17.133c-5.42,19.892,18.769,33.315,18.769,33.315
			c-5.115-1.542-5.077-1.422-8.881-3.44c0.448,1.586,10.966,6.844,12.44,6.766c0,0-23.497,9.575-33.569-6.34
			C516.637,139.189,527.154,111.146,519.113,111.61z"/>
		<g>
			<g>
				<path style="fill:#29405C;" d="M513.34,290.693c5.241-2.22,5.753-3.557,10.549,7.765c4.797,11.322,7.721,29.575,5.813,31.402
					c-2.957,2.83-8.949-1.939-15.404-12.095C507.702,307.387,508.098,292.913,513.34,290.693z"/>
				<path style="fill:#FDDAC3;" d="M519.182,324.544c-1.568-1.871-3.211-4.143-4.886-6.779c-6.596-10.378-6.199-24.852-0.958-27.072
					c0.653-0.277,1.232-0.54,1.756-0.766C519.161,299.953,525.534,318.678,519.182,324.544z"/>
			</g>
			<g>
				<path style="fill:#29405C;" d="M485.402,351.811c5.691-0.031,6.679-1.068,6.746,11.229c0.067,12.296-4.263,30.268-6.727,31.219
					c-3.819,1.473-7.513-5.236-9.559-17.094C473.771,365.047,479.71,351.842,485.402,351.811L485.402,351.811z"/>
				<path style="fill:#FDDAC3;" d="M477.764,385.302c-0.726-2.33-1.368-5.06-1.9-8.138c-2.091-12.117,3.849-25.322,9.541-25.353
					c0.709-0.004,1.345-0.024,1.915-0.031C487.213,362.599,485.884,382.334,477.764,385.302z"/>
			</g>
			<g>
				<path style="fill:#0A668B;" d="M489.664,214.832c0,0,3.332,10.487,2.751,22.718c-0.806,16.96-3.668,45.834-5.465,56.241
					c-0.547,3.172,20.808-2.768,24.028-2.111c5.226,1.068,6.158,19.727,1.271,24.225c-8.844,8.142-52.174,23.5-53.759,4.611
					c-2.122-25.293-2.272-46.314-2.272-46.314s-11.452,41.746-8.784,48.703c4.606,12.013,38.215,25.137,38.276,29.911
					c0.061,4.774-5.293,14.611-9.749,16.831c-4.456,2.219-61.308-17.541-61.088-43.282c0.22-25.741,15.969-101.944,25.205-112.587
					C452.714,199.22,489.664,214.832,489.664,214.832z"/>
				<path style="fill:#0F3C62;" d="M434.384,225.805c2.031-5.785,3.978-10.043,5.698-12.026
					c12.635-14.558,49.585,1.054,49.585,1.054s2.144,6.748,2.692,15.733C477.589,232.343,450.549,234.066,434.384,225.805z"/>
				<path style="fill:#0F3C62;" d="M455.358,277.43c0.093-3.261,0.044-8.275-1.038-9.626c-1.64-2.049-14.766-10.815-9.908-8.194
					c4.857,2.622,11.311,3.402,11.84,7.718c0.353,2.876,0.159,6.457-0.011,8.526c-0.017-1.076-0.02-1.653-0.02-1.653
					S455.892,275.403,455.358,277.43L455.358,277.43z"/>
				<path style="fill:#ECF0F2;" d="M515.452,304.381c-8.447,3.33-19.979,6.675-27.665,5.993c-3.366-0.298-6.053-1.374-7.712-3.286
					c-1.693-1.952-2.445-4.837-1.506-8.967c2.182-9.599,7.87-54.227,5.36-79.028c-0.099-0.975,0.613-1.847,1.588-1.946
					c0.975-0.099,1.847,0.613,1.946,1.588c2.547,25.16-3.216,70.435-5.43,80.172c-0.609,2.679-0.372,4.586,0.726,5.852
					c1.134,1.307,3.04,1.871,5.342,2.076c7.584,0.673,19.106-2.907,27.157-6.202C515.391,301.852,515.456,303.117,515.452,304.381z"
					/>
			</g>
		</g>
		<g>
			<path style="fill:#FDDAC3;" d="M589.91,107.273c-1.959,0.102-7.056-2.102-5.526-10.598c0.516-2.868,2.193-3.19,2.452-8.283
				c0.04-0.796,0.436-2.985,1.314-3.334c1.969-0.783,2.489,6.717,2.539,6.72c0.317,0.013,7.713-5.726,9.491-4.843
				c2.042,1.015-4.09,6.451-3.861,6.667c0.252,0.237,7.243-3.616,8.719-1.344c1.009,1.554-6.188,5.539-6.137,5.764
				c0.02,0.086,7.594-0.225,7.635,1.744c0.043,2.072-5.953,2.113-7.38,3.094c-0.129,0.088,5.777,2.008,5.01,3.466
				c-0.46,0.875-5.187,0.493-5.988,0.565C594.958,107.18,593.138,107.104,589.91,107.273L589.91,107.273z"/>
			<path style="fill:#FDDAC3;" d="M487.155,139.211c15.432-2.297,29.203-2.026,58.477-18.541
				c28.583-16.126,39.153-23.249,39.153-23.249l5.649,9.073c0,0-59.693,39.486-72.636,54.859
				c-13.521,16.059-20.173,26.462-21.925,35.676c-1.752,9.214,2.083,28.201,2.083,28.201c-27.105,3.255-49.21,0.32-62.558-5.213
				c0,0,7.75-40.719,12.418-53.058c3.98-10.521,14.581-20.671,19.081-24.101C471.395,139.428,479.745,140.314,487.155,139.211
				L487.155,139.211z"/>
			<path style="fill:#3DB28F;" d="M510.879,135.354c-5.295,5.986-19.825,25.153-4.852,40.926
				c-5.829,8.232-9.013,14.755-10.153,20.749c-1.752,9.214,2.083,28.201,2.083,28.201c-27.105,3.255-49.21,0.32-62.558-5.213
				c0,0,7.75-40.719,12.418-53.058c3.98-10.521,14.581-20.671,19.081-24.101c4.499-3.43,12.848-2.544,20.258-3.646
				C494.779,138.076,501.997,137.569,510.879,135.354z"/>
			<g>
				<defs>
					<path id="SVGID_1_" d="M510.879,135.354c-5.295,5.986-19.825,25.153-4.852,40.926c-5.829,8.232-9.013,14.755-10.153,20.749
						c-1.752,9.214,2.083,28.201,2.083,28.201c-27.105,3.255-49.21,0.32-62.558-5.213c0,0,7.75-40.719,12.418-53.058
						c3.98-10.521,14.581-20.671,19.081-24.101c4.499-3.43,12.848-2.544,20.258-3.646
						C494.779,138.076,501.997,137.569,510.879,135.354z"/>
				</defs>
				<clipPath id="SVGID_00000056404977817195769500000003835925948178519687_">
					<use xlink:href="#SVGID_1_"  style="overflow:visible;"/>
				</clipPath>
				<g style="clip-path:url(#SVGID_00000056404977817195769500000003835925948178519687_);">
					<g>
						<path style="fill:#BFF2EA;" d="M445.442,152.58c0,0,56.864-5.94,67.349-8.7c10.485-2.76,12.178-9.566,12.178-9.566
							s-65.294,10.088-69.192,9.477C451.879,143.18,445.442,152.58,445.442,152.58z"/>
						<path style="fill:#BFF2EA;" d="M447.859,157.708c0,0,61.541-2.307,64.389-2.919c2.848-0.612-4.925,15.121-4.925,15.121
							l-64.99,1.624L447.859,157.708L447.859,157.708z"/>
						<path style="fill:#BFF2EA;" d="M440.366,179.604c0,0,58.627-4.769,69.191,2.903c10.564,7.672,0.577,17.961,0.577,17.961
							s-68.596-8.004-72.415-6.451C433.9,195.569,440.366,179.604,440.366,179.604z"/>
						<path style="fill:#BFF2EA;" d="M434.711,202.552c0,0,66.484,2.641,70.077,6.63c3.594,3.989,1.677,9.572,1.677,9.572
							s-63.406,4.057-73.377-4.931C423.116,204.834,434.711,202.552,434.711,202.552L434.711,202.552z"/>
					</g>
				</g>
			</g>
			<path style="fill:#FDDAC3;" d="M504.222,136.781c-1.576,1.669-3.404,3.8-4.399,5.11c-5.018,6.613-12.721,15.608-21.813,16.298
				c-15.905,1.208-12.146-9.238-3.542-17.866c3.943-0.502,8.465-0.485,12.683-1.113
				C492.784,138.373,498.196,137.877,504.222,136.781z"/>
		</g>
		<g>
			<g>
				<path style="fill:#FDDAC3;" d="M499.119,131.047c0,0-1.74,8.068-1.775,10.877c-0.034,2.808-18.09,1.344-18.09,1.344
					s4.37-8.144,4.844-13.115C484.441,126.56,499.119,131.047,499.119,131.047L499.119,131.047z"/>
				<path style="fill:#EDBFA0;" d="M482.813,135.259c0.634-1.784,1.14-3.592,1.284-5.107c0.343-3.592,15.021,0.895,15.021,0.895
					s-0.48,2.225-0.941,4.744C493.183,137.741,486.709,137.173,482.813,135.259z"/>
			</g>
			<g>
				<path style="fill:#EDBFA0;" d="M474.773,104.672c-3.358-0.279-5.696,2.671-5.981,6.098c-0.285,3.426,1.362,6.114,4.822,6.47
					c3.301,0.34,6.147-2.109,6.432-5.535C480.33,108.279,478.131,104.951,474.773,104.672z"/>
				<g>
					<path style="fill:#FDDAC3;" d="M514.235,84.772c-11.056-7.543-25.968-0.732-34.528,11.816
						c-8.56,12.547-5.044,28.158,2.732,33.986c10.548,7.905,26.027,3.796,34.586-8.752
						C525.586,109.275,525.291,92.314,514.235,84.772z"/>
					<path style="fill:#EDBFA0;" d="M475.866,104.673c0.806-2.751,2.062-5.484,3.836-8.085c8.56-12.548,23.471-19.359,34.528-11.816
						c10.832,7.39,11.334,23.818,3.302,36.279c-4.68,3.062-8.668,5.609-8.668,5.609s3.849-11.682,1.571-15.315
						c-2.278-3.633-2.384-10.002-1.709-13.611c0,0-6.077,0.682-11.913-2.17c-5.835-2.852-17.628,2.677-20.35,9.664
						C475.519,107.653,475.492,106.826,475.866,104.673L475.866,104.673z"/>
				</g>
				<path style="fill:#FDDAC3;" d="M518.437,121.801c-2.865-1.955-6.318-0.705-8.159,1.993c-1.841,2.699-1.618,5.775,1.303,7.848
					c2.787,1.976,6.46,1.404,8.301-1.296C521.724,127.648,521.303,123.756,518.437,121.801z"/>
				<g>
					<path style="fill:#0D0D22;" d="M503.225,111.432c0.715,0.116,1.164,1.029,1,2.036c-0.164,1.008-0.878,1.731-1.593,1.615
						c-0.716-0.116-1.164-1.029-1-2.036C501.796,112.039,502.509,111.316,503.225,111.432L503.225,111.432z"/>
					<path style="fill:#0D0D22;" d="M486.549,106.845c0.716,0.116,1.164,1.028,1,2.036c-0.164,1.007-0.878,1.731-1.593,1.615
						c-0.716-0.116-1.164-1.028-1-2.036C485.12,107.453,485.834,106.729,486.549,106.845z"/>
					<path style="fill:#0D0D22;" d="M487.434,100.064c-2.503-0.078-5.533,1.426-5.337,2.023c0.192,0.585,2.483-1.146,4.986-1.067
						c2.503,0.079,4.287,3.269,4.307,2.642C491.409,103.034,489.936,100.142,487.434,100.064z"/>
					<path style="fill:#0D0D22;" d="M506.393,106.755c2.139,1.301,2.84,3.982,2.351,4.374c-0.481,0.385-0.803-2.278-2.943-3.579
						c-2.139-1.301-6.028,0.356-5.701-0.18C500.426,106.834,504.254,105.453,506.393,106.755z"/>
					<g>
						<path style="fill:#753829;" d="M492.606,127.738c4.488,0.237,5.702-9.184,5.485-9.192c-0.7-0.026-1.869,0.238-5.091,0.016
							c-2.468-0.17-4.48-0.674-5.492-1.052C487.052,117.341,487.936,127.491,492.606,127.738L492.606,127.738z"/>
						<path style="fill:#E05357;" d="M488.329,123.092c2.682-1.146,5.803-1.101,8.844-0.033c-0.828,2.385-2.268,4.801-4.568,4.679
							C490.46,127.625,489.113,125.423,488.329,123.092L488.329,123.092z"/>
					</g>
					<path style="fill:#E57E6F;" d="M494.772,114.18c1.046-2.252-0.68-5.727-0.68-5.727s-5.688,3.532-4.684,5.58
						C491.042,117.368,494.243,115.318,494.772,114.18z"/>
				</g>
				<g>
					<path style="fill:#E4B543;" d="M511.737,92.298c0,0-1.809,5.317-1.623,11.822c0.222,7.763,4.427,8.192,1.112,16.26
						c-1.22,2.97-1.674,1.694-5.92,8.908c-3.048,5.178-2.792,10.112-2.792,10.112s2.398-5.046,6.965-10.712
						c3.775-4.683,11.463-7.618,14.894-14.51c5.211-10.468,4.051-15.425-0.162-24.45c-2.508-5.372-7.099-5.849-7.099-5.849
						c-3.02-12.338-16.793-14.073-30.657-6.128c-5.219,2.991-10.88,7.215-12.895,16.246c-1.34,6.003-0.373,10.047-0.427,13.895
						c-0.213,15.377-6.639,19.953-6.639,19.953s6.627-3.263,8.488-6.992c5.283-10.591,0.391-8.97,5.942-23.002
						c1.998-5.052,7.368-5.935,13.219-5.598c5.907,0.341,6.672,1.331,11.297,1.439C508.882,93.771,511.737,92.298,511.737,92.298
						L511.737,92.298z"/>
					<path style="fill:#D9A140;" d="M526.976,96.617c1.596,5.375,1.137,10.049-2.602,17.561c-3.431,6.892-11.119,9.827-14.894,14.51
						c-4.567,5.666-6.965,10.712-6.965,10.712s-0.256-4.935,2.792-10.112c4.245-7.214,4.7-5.939,5.92-8.908
						c3.315-8.068-0.89-8.497-1.112-16.26c-0.024-0.834-0.015-1.648,0.019-2.434C516.407,100.028,522.224,98.191,526.976,96.617
						L526.976,96.617z M478.29,106.433c-0.999,5.478,0.529,6.73-3.307,14.419c-1.86,3.73-8.488,6.992-8.488,6.992
						s6.426-4.577,6.639-19.953c0.009-0.595-0.008-1.195-0.036-1.806C474.775,106.285,476.511,106.397,478.29,106.433
						L478.29,106.433z"/>
				</g>
			</g>
		</g>
	</g>
	<g>
		<g>
			<g>
				<path style="fill:#D3525B;" d="M326.765,436.242c4.274,1.708,5.329,1.232,1.639,10.465c-3.689,9.233-12.4,21.381-14.535,21.344
					c-3.309-0.058-4.036-6.208-1.963-15.714C314.024,442.621,322.491,434.534,326.765,436.242z"/>
				<path style="fill:#BF7A63;" d="M310.853,459.011c0.165-1.967,0.514-4.208,1.052-6.674c2.119-9.715,10.585-17.802,14.859-16.094
					c0.533,0.213,1.015,0.392,1.445,0.56C324.838,444.875,317.84,459.257,310.853,459.011L310.853,459.011z"/>
			</g>
			<g>
				<path style="fill:#D3525B;" d="M352.534,337.52c4.08-2.128,4.407-3.239,9.005,5.577c4.599,8.815,8.136,23.339,6.716,24.934
					c-2.2,2.473-7.339-0.984-13.198-8.752C349.069,351.34,348.453,339.648,352.534,337.52L352.534,337.52z"/>
				<path style="fill:#BF7A63;" d="M359.433,364.426c-1.384-1.406-2.856-3.132-4.377-5.148c-5.987-7.938-6.604-19.63-2.523-21.759
					c0.508-0.265,0.958-0.515,1.366-0.731C357.826,344.607,364.173,359.287,359.433,364.426z"/>
			</g>
			<g>
				<path style="fill:#0A668B;" d="M347.931,285.847c0,0,5.462,21.988-11.544,54.502c0,0-5.286,9.171,3.541,3.915
					c8.827-5.256,11.482-5.837,11.482-5.837c1.577,5.423,2.271,10.997,1.22,16.873c0,0-27.862,23.793-36.253,22.996
					c0,0,0.021,35.034,12.584,59.022c-4.183,4.532-8.996,6.97-14.345,7.631c-6.204-8.584-42.241-90.546-17.977-168.266
					L347.931,285.847L347.931,285.847z"/>
				<path style="fill:#0F3C62;" d="M292.69,291.682c1.084-5.003,2.393-10.01,3.951-15l51.291,9.165c0,0,0.876,3.527,0.834,9.846
					C338.473,297.55,313.679,300.567,292.69,291.682L292.69,291.682z"/>
				<path style="fill:#0F3C62;" d="M316.4,379.72c-5.95-2.048-6.948-5.227-6.891-14.335c0.065-10.384,1.915-19.592,4.005-29.237
					c2.044-9.436,2.781-13.249,1.483-15.357c-1.291-2.096-2.579-2.328-6.146-5.267c-1.952-1.609-5.086-4.991-4.47-4.445
					c0.802,0.711,4.88,3.089,8.792,4.914c2.602,1.214,5.634,2.131,5.749,2.339c0.142,0.254-4.63,17.935-6.376,28.109
					c-1.793,10.449-3.493,26.287,0.07,29.22c1.177,0.969,2.261,1.958,3.762,2.648C316.378,378.393,316.38,378.883,316.4,379.72
					L316.4,379.72z"/>
			</g>
		</g>
		<g>
			<path style="fill:#BF7A63;" d="M371.884,241.323c0,0,2.932,14.775,5.76,14.758c2.827-0.017,15.962-19.243,18.987-21.977
				l8.523,5.763c0,0-26.022,39.77-32.129,40.113c-6.106,0.343-21.891-23.091-20.276-36.452
				C354.364,230.167,371.884,241.323,371.884,241.323L371.884,241.323z"/>
			<path style="fill:#AB5D49;" d="M355.448,257.825c-2.032-5.063-3.198-10.163-2.699-14.298c1.615-13.36,19.135-2.204,19.135-2.204
				s0.828,4.172,2.029,8.081c-0.763,0.36-1.426,0.821-1.824,1.406c-1.537,2.259-1.091,3.908-5.586,3.504
				c-4.495-0.404-8.638-0.247-9.634,0.91C356.308,255.874,355.83,256.799,355.448,257.825z"/>
			<path style="fill:#BF7A63;" d="M403.392,241.539c-1.859,0.479-7.175-0.644-7.36-9.088c-0.063-2.851,1.483-3.485,0.741-8.42
				c-0.116-0.77-0.161-2.947,0.612-3.452c1.736-1.133,3.693,5.958,3.74,5.95c0.307-0.049,6.284-6.991,8.16-6.49
				c2.156,0.576-2.667,6.982-2.406,7.144c0.288,0.178,6.243-4.876,8.1-2.984c1.27,1.294-4.857,6.515-4.764,6.721
				c0.035,0.078,7.238-1.692,7.66,0.188c0.444,1.978-5.297,3.184-6.476,4.402c-0.107,0.11,5.93,0.802,5.478,2.35
				c-0.271,0.928-4.878,1.48-5.633,1.706C408.215,240.469,406.455,240.75,403.392,241.539L403.392,241.539z"/>
		</g>
		<g>
			<path style="fill:#BF7A63;" d="M298.07,211.755c0,0-16.662,16.103-19.133,15.113c-2.471-0.989-16.931-28.314-17.961-28.519
				c-3.42-0.683-6.148,5.973-6.148,5.973s12.387,45.232,24.247,41.753c11.86-3.479,28.629-17.701,31.681-21.469
				C313.809,220.838,298.07,211.755,298.07,211.755z"/>
			<path style="fill:#AB5D49;" d="M290.412,218.82c4.083-3.61,7.658-7.065,7.658-7.065s15.739,9.083,12.687,12.851
				c-1.165,1.438-4.327,4.398-8.45,7.701c0.064-1.297-0.148-2.733-1.061-3.472c-1.384-1.122-2.832-0.698-4.443-2.239
				c-1.61-1.541-1.07-5.116-3.379-5.3C292.365,221.211,291.278,220.05,290.412,218.82z"/>
			<path style="fill:#BF7A63;" d="M255.115,204.773c1.822,0.602,7.202-0.166,7.948-8.579c0.252-2.84-1.248-3.576-0.18-8.45
				c0.167-0.761,0.357-2.93-0.381-3.486c-1.657-1.246-4.081,5.699-4.128,5.688c-0.303-0.069-5.805-7.393-7.71-7.018
				c-2.19,0.431,2.197,7.143,1.926,7.288c-0.299,0.159-5.905-5.28-7.884-3.516c-1.354,1.207,4.414,6.824,4.306,7.023
				c-0.04,0.076-7.11-2.169-7.656-0.322c-0.575,1.944,5.074,3.529,6.169,4.822c0.099,0.117-5.971,0.407-5.623,1.981
				c0.209,0.944,4.77,1.801,5.507,2.077C250.374,203.384,252.111,203.782,255.115,204.773L255.115,204.773z"/>
		</g>
		<g>
			<path style="fill:#E39189;" d="M350.562,248.529c-0.114,0.024,0.512,4.309,0.629,4.324c0.141,0.019,1.507-1.049,2.024-1.109
				c1.459-0.168,2.578,1.56,4.089,1.215c1.608-0.367,2.658-2.12,4.363-2.541c2.313-0.57,4.627,0.472,6.942,0.046
				c1.717-0.316,2.311-1.718,3.743-2.433c1.535-0.766,3.426-0.321,5.026-1.024c0.401-0.176,1.573-0.661,1.551-1.253
				c-0.012-0.347-0.863-0.587-1.102-0.689c-1.328-0.567-2.684-1.069-3.953-1.765c-0.655-0.36-1.285-0.772-1.858-1.253
				c-0.195-0.163-0.51-0.613-0.785-0.652c-0.621-0.09-1.778,0.709-2.336,0.924c-2.146,0.825-4.336,1.507-6.529,2.197
				C358.799,245.636,350.562,248.529,350.562,248.529L350.562,248.529z"/>
			<path style="fill:#E39189;" d="M306.094,223.852c3.244,4.393-0.026,7.132-3.887,2.118c-0.905-1.175-2.643-0.999-3.862-1.774
				c-1.478-0.939-0.779-2.792-1.356-4.151c-0.593-1.398-2.239-1.715-2.899-3.039c-0.563-1.129-0.065-2.259-0.187-3.424
				c-0.085-0.813-2.355-2.407-1.334-3.253c0.298-0.247,0.814,0.053,1.094,0.181c1.097,0.501,2.122,1.132,3.205,1.659
				c1.586,0.77,3.392,1.447,4.695,2.669c0.956,0.897,1.471,2.138,2.092,3.267C304.698,220,305.739,221.704,306.094,223.852z"/>
			<path style="fill:#D3525B;" d="M326.423,193.642c9.907,0.093,37.729,17.663,42.551,26.681c2.044,3.822,6.438,21.658,4.642,23.169
				c-4.406,3.707-22.854,6.409-22.854,6.409s-0.903,9.478-1.893,16.552c-1.029,7.342,1.85,22.076,1.361,25.081
				c-1.154,7.087-57.774-0.376-56.866-6.843c0.247-1.758,1.944-16.941,4.041-29.305c3.259-19.207,9.257-28.042,7.827-29.201
				c-2.393-1.939-11.982-12.755-9.284-15.554C300.954,205.437,314.915,193.534,326.423,193.642L326.423,193.642z"/>
			<path style="fill:#E39189;" d="M326.182,194.239c-0.701-0.638-3.179-3.325-4.052-2.193c-1.192,1.545-1.327,3.939-0.455,5.654
				c0.424,0.834,1.506,1.753,1.434,2.763c-0.121,1.702-1.669,3.038-1.271,4.864c0.429,1.968,2.891,2.543,3.362,4.521
				c0.441,1.849-0.519,4.297,0.789,5.882c1.963,2.377,6.024,0.697,8.553,1.589c2.261,0.798,2.98,3.787,5.215,4.832
				c2.894,1.352,4.452-1.546,7.13-1.52c2.66,0.027,5.051,1.963,7.784,1.51c1.766-0.292,2.085-2.15,3.606-2.789
				c1.928-0.811,4.314,0.563,6.097-0.33c0.997-0.5,0.859-2.152,1.867-2.777c0.996-0.618,1.97-2.001,1.413-1.94
				c-2.086,0.227-5.059-0.459-6.919-1.732"/>
			<path style="fill:#BF7A63;" d="M325.103,193.681c0.442-0.03,0.883-0.043,1.32-0.039c7.834,0.074,26.872,11.076,36.878,20.135
				c-7.475,3.064-20.454,5.968-29.649,0.38C324.516,208.606,323.562,198.527,325.103,193.681z"/>
			<path style="fill:#BE444C;" d="M350.646,249.559c0,0-0.278-3.107-0.481-5.57c-0.284-3.435-0.836-8.733-0.83-12.19
				c0.002-1.22-0.513,3.425-0.646,4.653C348.322,239.85,348.287,247.636,350.646,249.559z"/>
			<path style="fill:#BE444C;" d="M348.656,269.381c-0.173,7.781,2.005,19.508,1.575,22.152c-1.154,7.087-57.774-0.376-56.866-6.843
				c0.076-0.539,0.287-2.336,0.605-4.928c9.091,1.564,18.203,1.267,27.335,0.031c7.941-1.074,15.292-3.726,22.34-7.49
				C345.35,271.392,347.028,270.425,348.656,269.381L348.656,269.381z"/>
			<path style="fill:#BE444C;" d="M302.37,223.303c1.039-5.268,4.076-8.541,7.898-12.418c1.328-1.347,5.22-4.566,4.683-3.868
				c-1.658,2.153-3.046,4.529-4.32,6.926c-2.197,4.133-3.483,8.588-5.042,12.976c-0.094,0.265-0.188,0.53-0.281,0.795
				c0.2-0.805,0.199-1.309-0.075-1.531C304.63,225.695,303.572,224.645,302.37,223.303L302.37,223.303z"/>
		</g>
		<g>
			<g>
				<path style="fill:#BF7A63;" d="M354.398,192.549c-2.066,4.097-2.155,8.811-2.349,13.755c0,0-4.462,7.105-15.146,6.707
					c-4.996-0.186-3.769-10.59-3.769-10.59c2.639-3.601,4.822-7.507,7.004-12.048L354.398,192.549L354.398,192.549z"/>
				<path style="fill:#AB5D49;" d="M337.957,194.681c0.738-1.374,1.46-2.806,2.182-4.307l14.26,2.175
					c-0.662,1.313-1.121,2.69-1.446,4.117C345.644,198.053,340.717,196.294,337.957,194.681z"/>
			</g>
			<path style="fill:#AB5D49;" d="M331.213,169.045c-3.078-0.119-5.094,2.67-5.216,5.811c-0.122,3.141,1.491,5.529,4.665,5.715
				c3.029,0.177,5.529-2.175,5.65-5.316C336.435,172.114,334.291,169.164,331.213,169.045z"/>
			<g>
				<path style="fill:#BF7A63;" d="M366.444,149.274c-10.403-6.441-23.505,0.331-30.816,12.137
					c-7.31,11.806-3.821,27.984,5.128,32.576c7.556,3.877,22.425,0.82,29.736-10.986
					C377.803,171.193,376.848,155.716,366.444,149.274z"/>
				<path style="fill:#AB5D49;" d="M333.136,166.709c0.62-1.826,1.446-3.607,2.493-5.299c7.31-11.806,20.413-18.578,30.816-12.137
					c10.403,6.442,11.358,21.92,4.048,33.726c-0.174,0.281-0.353,0.557-0.535,0.829c-3.661,1.33-6.154,1.603-6.365,1.522
					c0,0-0.207-6.11,1.868-10.211c2.074-4.102-0.941-7.099-0.086-11.015c0.481-2.204,0.75-2.961,0.893-3.201
					c0.095-0.039,0.146-0.063,0.146-0.063s-0.035-0.124-0.146,0.063c-0.975,0.399-6.592,2.438-9.81-2.011
					c-3.532-4.885-3.854-4.037-6.088-1.844c-2.234,2.193-8.768,5.615-10.951,5.613C337.987,162.68,335.248,164.69,333.136,166.709z"
					/>
			</g>
			<g>
				<path style="fill:#0D0D22;" d="M342.544,161.66c-2.278-0.227-4.368,1.251-4.227,1.807c0.139,0.546,1.587-1.078,3.865-0.851
					c2.277,0.227,4.264,3.555,4.321,2.984C346.561,165.029,344.822,161.887,342.544,161.66z"/>
				<path style="fill:#0D0D22;" d="M360.873,168.112c1.989,1.133,3.444,3.918,3.007,4.29c-0.429,0.365-1.318-2.164-3.307-3.298
					c-1.989-1.133-5.337,0.841-5.053,0.343C355.804,168.948,358.884,166.978,360.873,168.112z"/>
				<path style="fill:#0D0D22;" d="M358.128,173.57c2.018,1.081,2.733,3.331,2.306,3.714c-0.419,0.376-0.699-1.763-2.717-2.844
					c-2.018-1.081-4.215,0.621-3.944,0.116C354.044,174.05,356.11,172.49,358.128,173.57L358.128,173.57z"/>
				<path style="fill:#0D0D22;" d="M341.761,168.044c-2.271-0.29-4.158,1.13-4.032,1.689c0.124,0.549,1.592-1.032,3.862-0.742
					c2.271,0.29,3.074,2.95,3.147,2.381C344.811,170.803,344.032,168.333,341.761,168.044z"/>
				<g>
					<path style="fill:#532423;" d="M346.883,189.874c4.354,0.352,5.501-4.911,5.671-7.612c0.033-0.51-10.07-1.938-10.188-1.441
						C341.899,182.805,342.199,189.496,346.883,189.874L346.883,189.874z"/>
					<path style="fill:#E05357;" d="M342.822,186.339c0.178-0.091,0.36-0.173,0.546-0.247c2.497-0.997,5.372-0.57,7.996,0.973
						c-0.845,1.681-2.237,2.989-4.48,2.808C344.697,189.697,343.466,188.146,342.822,186.339z"/>
				</g>
				<path style="fill:#B5463C;" d="M348.097,178.11c1.296-1.864,1.491-5.038,0.196-5.705c-1.528-0.788-5.36,2.609-4.633,4.563
					C344.597,179.483,347.443,179.052,348.097,178.11z"/>
			</g>
			<path style="fill:#FFFFFF;" d="M344.541,174.69C344.541,174.69,344.541,174.69,344.541,174.69"/>
			<g>
				<path style="fill:#08668A;" d="M364.497,159.353l3.044-0.631c0,0-0.842,1.895-0.858,5.151c-0.024,5.034,1.856,6.699,1.344,9.089
					c-0.858,3.999-4.809,6.419-6.087,10.242c-1.106,3.312,0.578,3.57-0.336,8.676c-0.84,4.693-3.739,8.067-3.458,8.091
					c6.174,0.516,3.924,3.673,13.81,2.232c6.459-0.942,7.105-2.474,7.444-3.035c0.437-0.724-2.2-6.241-1.091-11.222
					c1.011-4.537,3.674-5.631,4.641-9.204c1.61-5.945-0.915-8.144-1.345-12.443c-0.416-4.157,0.903-8.099-1.803-11.773
					c-2.406-3.266-7.398-3.233-7.405-3.266c-1.7-7.949-8.708-11.349-13.47-13.549c-10.115-4.673-20.426,0.421-25.637,11.685
					c-0.925,1.999-3.161,4.478-5.216,5.288c-1.814,0.716-3.756,1.731-5.152,3.216c-2.473,2.631-1.313,6.771-2.792,9.825
					c-1.529,3.16-5.092,2.584-5.843,9.016c-0.347,2.973,9.627,11.083,10.108,9.33c0.798-2.907,4.295-8.516,5.845-11.028
					c2.351-3.809,3.064-8.408,6.021-11.891c2.433-2.866,5.412-1.815,8.346-3.277c3.243-1.615,4.784-7.911,9.327-6.875
					c1.93,0.441,2.74,2.674,3.911,4.03C359.522,158.968,362.039,159.58,364.497,159.353L364.497,159.353z"/>
				<path style="fill:#065271;" d="M383.458,174.293c0.087,1.256-0.027,2.688-0.504,4.449c-0.967,3.572-3.63,4.666-4.641,9.203
					c-1.109,4.981,1.528,10.498,1.091,11.222c-0.339,0.561-0.985,2.093-7.444,3.035c-9.886,1.441-7.636-1.716-13.81-2.232
					c-0.281-0.024,2.617-3.397,3.458-8.091c0.914-5.106-0.77-5.365,0.336-8.676c0.975-2.919,3.508-5.019,5.034-7.629
					C372.968,175.345,378.609,174.849,383.458,174.293z M320.039,167.915c3.464,1.93,7.371,3.424,11.544,4.562
					c-0.395,0.88-0.827,1.741-1.336,2.566c-1.551,2.512-5.047,8.121-5.845,11.028c-0.481,1.753-10.455-6.357-10.108-9.33
					C315.029,170.441,318.462,170.865,320.039,167.915z"/>
			</g>
		</g>
		<path style="fill:#E1D1DF;" d="M275.234,290.206c0.033,0.016,0.064,0.033,0.097,0.051"/>
		<path style="fill:#E1D1DF;" d="M228.425,346.392c0.001,0.008,0.001,0.016,0.001,0.023"/>
	</g>
	<g>
		<g>
			<g>
				<path style="fill:#3B3B58;" d="M18.798,388.467c0.821-0.009,6.073,0.074,7.58,2.593c3.922,6.552,4.407,13.735,4.042,21.402
					c-0.158,3.322-1.773,9.441-4.109,10.081c-1.858,0.509-5.342-5.528-7.628-15.187C16.397,397.697,15.9,388.5,18.798,388.467
					L18.798,388.467z"/>
				<path style="fill:#BABAD3;" d="M28.309,420.512c-0.576,1.058-1.251,1.825-1.999,2.03c-1.858,0.509-5.342-5.528-7.628-15.187
					c-2.286-9.658-2.782-18.855,0.115-18.889c0.23-0.003,0.807,0.002,1.551,0.065C20.487,395.332,21.524,412.561,28.309,420.512
					L28.309,420.512z"/>
			</g>
			<g>
				<path style="fill:#BF7A63;" d="M55.47,342.532c0,0,25.213,38.926,16.447,45.273c-12.335,8.931-41.913,17.528-41.913,17.528
					c-2.42-1.74-3.629-3.531-5.053-6.962c-0.678-1.633-1.947-7.133-1.357-9.26c0,0,24.823-5.039,20.837-12.858
					c-6.432-12.618-12.592-17.006-12.592-17.006L55.47,342.532z"/>
				<path style="fill:#AB5D49;" d="M40.995,370.18c-5.027-7.992-9.156-10.932-9.156-10.932l23.631-16.716
					c0,0,4.773,7.369,9.444,16.219C58.337,362.758,48.939,367.931,40.995,370.18z"/>
			</g>
		</g>
		<g>
			<g>
				<path style="fill:#BF7A63;" d="M-18.628,364.858c0,0,3.712,56.684,17.265,87.452l20.935,8.488
					c-2.562,0.835-14.253-75.893-10.085-96.461L-18.628,364.858z"/>
				<path style="fill:#AB5D49;" d="M-16.692,384.809c-1.402-11.8-1.936-19.951-1.936-19.951l28.116-0.521
					c-0.72,3.552-0.966,8.779-0.869,14.994C1.622,381.895-8.82,385.097-16.692,384.809L-16.692,384.809z"/>
			</g>
			<g>
				<path style="fill:#3B3B58;" d="M20.182,465.893c0.738-2.309-1.278-8.86-3.553-11.408c-5.918-6.628-13.927-9.597-22.791-9.935
					c-3.841-0.146-11.433,1.566-13.076,4.989c-1.306,2.724,4.197,8.636,14.289,13.172C5.142,467.247,18.44,471.348,20.182,465.893z"
					/>
				<path style="fill:#BABAD3;" d="M-15.84,446.627c2.197-0.409,5.088-0.341,8.888,0.499c13.275,2.936,22,9.001,26.664,13.75
					c0.571,2.033,0.806,3.965,0.47,5.016c-1.743,5.456-15.04,1.354-25.131-3.181c-10.092-4.536-15.595-10.449-14.289-13.172
					C-18.674,448.365-17.411,447.392-15.84,446.627z"/>
				<path style="fill:#76798C;" d="M-17.492,447.601c2.406-0.431,5.651-0.314,10.025,0.748c14.63,3.551,23.514,10.159,27.674,14.78
					c0.172,1.134,0.181,2.116-0.026,2.764c-1.743,5.456-15.04,1.354-25.131-3.181c-10.092-4.536-15.595-10.449-14.289-13.172
					C-18.89,448.817-18.278,448.17-17.492,447.601z"/>
			</g>
		</g>
		<g>
			<path style="fill:#231E3F;" d="M-22.016,285.974c-3.288-0.794-5.593,84.66-3.365,87.87c2.384,3.434,40.516,2.381,39.528-3.296
				c-1.354-7.783-0.876-32.276-0.432-32.47c1.146-0.497,17.141,26.48,19.046,27.464c1.334,0.689,33.866-14.972,34.459-15.849
				c0.504-0.746-14.839-22.972-26.055-41.115c-7.009-11.337-4.493-20.935-6.543-21.357c-3.628-0.746-17.351-1.901-20.911-2.058
				C2.162,284.658-22.016,285.974-22.016,285.974z"/>
			<path style="fill:#1A1B2C;" d="M-24.286,299.466c0.653-8.259,1.43-13.695,2.27-13.492c0,0,24.178-1.316,35.728-0.809
				c3.56,0.157,17.283,1.312,20.911,2.058c1.969,0.405-0.276,9.281,5.761,20.031C18.192,309.926-10.952,303.096-24.286,299.466
				L-24.286,299.466z"/>
			<path style="fill:#1A1B2C;" d="M14.139,338.334c0.393-0.438,0.924-3.031,1.156-3.497c0.875-1.758,2.074-3.403,3.212-5.002
				c0.561-0.788,1.858-2.23,1.858-2.23s0.046,0.966,0.1,1.447c0.117,1.052,0.343,2.09,0.613,3.114
				c0.369,1.4,0.811,2.782,1.318,4.139c0.678,1.817,1.405,3.622,2.199,5.392c1.328,2.96,2.835,5.825,4.535,8.588
				c2.686,4.367,7.02,9.006,11.08,12.12c0.081,0.063,0.206,0.141,0.36,0.234c-4.253,1.867-7.409,3.108-7.806,2.904
				C30.986,364.625,16.945,341.085,14.139,338.334L14.139,338.334z"/>
		</g>
		<g>
			<path style="fill:#58333A;" d="M32.427,143.241c0,0-1.933-6.052-3.909-6.377c-1.73-0.285-2.063,2.211-2.106,3.376
				c-0.003,0.078,0.096,1.159-0.001,1.203c-0.175,0.081-1.207-0.644-1.65-0.539c-0.737,0.173-0.811,1.055-1.327,1.23
				c-0.784,0.265-2.932-2.063-3.495-2.465c-2.313-1.648-5.712-3.24-8.658-2.964c-1.995,0.186,0.768,4.358,1.194,5.105
				c0.155,0.271,1.025,1.371,0.612,1.722c-0.389,0.331-1.462,0.224-1.945,0.352c-1.254,0.332-2.767,0.818-3.665,1.816
				c-0.791,0.88,0.269,1.422,0.198,2.273c-0.044,0.531-1.012,0.776-1.194,1.369c-0.142,0.463,0.218,1.494-0.186,1.821
				c-0.906,0.734-2.862,0.81-3.945,1.196c-2.946,1.049-6.221,2.713-7.449,5.804c-1.052,2.647,2.44,3.186,4.204,3.579
				c0.307,0.069,2.067,0.208,2.074,0.701c0.011,0.837-2.246,2.058-2.658,2.848c-0.866,1.663,1.872,1.663,1.795,2.137
				c-0.106,0.654-1.595,1.74-2.016,2.233c-1.34,1.564-2.901,3.723-3.012,5.874c-0.074,1.441,1.188,2.085,2.446,2.225
				c0.292,0.032,1.259-0.058,1.41,0.314c0.25,0.615-1.159,2.472-1.417,2.989c-0.938,1.878-2.127,4.563-1.393,6.722
				c0.81,2.382,3.365,2.295,5.441,2.122c0.428-0.036,1.986-0.438,2.318-0.076c0.312,0.341-0.255,1.615-0.333,1.946
				c-0.244,1.029-1.273,4.321-0.315,5.223c0.889,0.836,3.595-1.152,4.327-1.579c0.07-0.041,1.309-0.884,1.368-0.827
				c0.234,0.227,0.115,1.688,0.151,1.983c0.172,1.444,0.213,3.465,1.136,4.667c1.124,1.464,3.674-0.151,4.713-0.943
				c0.168-0.128,0.918-0.955,1.174-0.842c0.304,0.135,0.31,1.087,0.335,1.34c0.088,0.919,0.365,3.145,1.67,3.271
				c1.21,0.118,1.723-2.976,2.702-2.839c0.6,0.084,1.383,2.794,1.617,3.263c1.194,2.392,2.843,7.175,5.998,7.525
				c2.031,0.226,1.635-4.293,1.604-5.337c-0.015-0.535-0.027-1.072-0.048-1.607c-0.01-0.249-0.253-1.713-0.026-1.862
				c0.013-0.008,0.7,0.917,0.752,0.982c0.468,0.599,1.554,2.035,2.502,1.784c0.962-0.254,0.804-2.251,0.794-2.945
				c-0.002-0.135-0.113-1.188,0.062-1.222c0.29-0.055,1.275,1.82,1.425,2.019c0.829,1.098,3.602,5.062,5.441,4.037
				c2.302-1.284-0.694-5.432,0.43-7.051c0.22-0.317,1.102,0.035,1.38,0.069c1.018,0.124,1.95,0.102,2.804-0.539
				c0.842-0.632,1.328-1.53,1.634-2.517c0.08-0.257,0.104-1.492,0.302-1.656c0.265-0.218,2.465,0.936,2.816,1.007
				c2.16,0.43,5.752-1.139,6.402-3.365c0.726-2.484-1.111-5.817-2.557-7.713c-0.589-0.772-1.864-1.623-2.091-2.615
				c-0.334-1.453,2.252-3.118,2.653-4.49c0.191-0.655-0.201-1.014-0.806-1.131c-0.052-0.01-0.783-0.105-0.782-0.025
				c0,0.024,0.684-0.284,0.698-0.291c0.499-0.25,0.98-0.532,1.447-0.837c1.196-0.783,2.797-2.02,3.043-3.556
				c0.204-1.27-2.573-1.11-2.442-1.873c0.657-3.792,5.635-7.158,3.927-11.509c-0.831-2.118-4.397-0.759-5.874-0.429
				c-0.366,0.082-1.899,0.693-2.193,0.276c-0.436-0.617,0.183-2.163,0.331-2.78c0.407-1.699,1.054-3.671,0.313-5.372
				c-0.977-2.242-2.998,0.101-4.061-0.823c-0.396-0.343,0.189-1.945-0.123-2.537c-0.459-0.873-2.028-0.118-2.33-0.733
				c-0.241-0.491,0.29-1.519,0.421-1.973c0.54-1.865,1.885-4.943,0.514-6.728c-2.685-3.496-6.848,1.368-8.51,3.394
				c-0.435,0.53-1.045,1.758-1.711,2.044c-0.367,0.158-0.146-0.982-0.138-1.079c0.069-0.742,0.313-2.857-0.555-3.305
				C34.686,139.007,33.001,142.354,32.427,143.241z"/>
			<path style="fill:#492230;" d="M-2.482,170.621c1.091,2.923,3.053,5.138,6.465,1.43c0,0,6.185,17.456,11.028,10.028
				l24.021,11.888c0,0,3.981,8.722,8.333-0.447c0,0,2.831,2.199,6.028,3.342c-1.007,0.352-2.051,0.482-2.884,0.317
				c-0.352-0.07-2.551-1.224-2.816-1.007c-0.198,0.163-0.222,1.398-0.302,1.656c-0.307,0.987-0.793,1.885-1.634,2.517
				c-0.854,0.642-1.785,0.663-2.804,0.539c-0.278-0.034-1.16-0.386-1.38-0.069c-1.123,1.62,1.872,5.768-0.43,7.051
				c-1.839,1.025-4.612-2.939-5.441-4.037c-0.15-0.199-1.135-2.074-1.425-2.019c-0.175,0.034-0.064,1.087-0.062,1.222
				c0.01,0.694,0.167,2.691-0.794,2.945c-0.948,0.251-2.033-1.185-2.502-1.784c-0.052-0.066-0.739-0.991-0.752-0.982
				c-0.227,0.149,0.016,1.613,0.026,1.862c0.021,0.535,0.033,1.072,0.048,1.607c0.031,1.043,0.427,5.562-1.604,5.337
				c-3.155-0.35-4.804-5.133-5.998-7.525c-0.234-0.469-1.017-3.179-1.617-3.263c-0.979-0.137-1.492,2.957-2.702,2.839
				c-1.305-0.127-1.582-2.353-1.67-3.271c-0.024-0.253-0.031-1.205-0.335-1.34c-0.256-0.113-1.007,0.714-1.174,0.842
				c-1.039,0.792-3.589,2.407-4.713,0.943c-0.923-1.202-0.964-3.223-1.136-4.667c-0.035-0.295,0.083-1.756-0.151-1.983
				c-0.058-0.057-1.298,0.786-1.368,0.827c-0.732,0.427-3.438,2.415-4.327,1.579c-0.958-0.901,0.071-4.194,0.315-5.223
				c0.078-0.331,0.646-1.605,0.333-1.946c-0.332-0.362-1.891,0.04-2.318,0.076c-2.075,0.173-4.63,0.26-5.441-2.122
				c-0.735-2.159,0.455-4.844,1.393-6.722c0.258-0.517,1.668-2.374,1.417-2.989c-0.152-0.372-1.119-0.282-1.41-0.314
				c-1.258-0.14-2.52-0.784-2.446-2.225C-4.622,173.795-3.584,172.051-2.482,170.621z"/>
		</g>
		<g>
			<path style="fill:#E1D1DF;" d="M-10.833,178.936c0,0-20.378-44.819-21.915-68.139l-12.019,7.214
				c0.073,0.441,4.073,58.453,21.052,75.815L-10.833,178.936z"/>
			<path style="fill:#C7AFC7;" d="M-14.715,169.968c2.307,5.504,3.882,8.968,3.882,8.968l-12.882,14.891
				c-2.131-2.179-4.058-4.998-5.797-8.263C-21.096,181.15-16.811,174.586-14.715,169.968z"/>
			<path style="fill:#BF7A63;" d="M-45.174,118.248c1.832,1.439,8.289,2.785,12.615-6.51c1.461-3.138,0.053-4.597,3.285-9.72
				c0.505-0.8,1.618-3.197,1.005-4.135c-1.377-2.107-7.012,4.819-7.06,4.788c-0.317-0.204-3.572-10.836-5.902-11.194
				c-2.678-0.411-0.442,9.061-0.812,9.114c-0.407,0.058-4.559-8.465-7.546-7.269c-2.043,0.819,2.219,9.611,2.015,9.795
				c-0.078,0.07-7.22-5.413-8.606-3.53c-1.458,1.982,4.334,6.123,5.05,8.052c0.065,0.175-6.983-2.002-7.235-0.061
				c-0.152,1.164,4.699,4.026,5.428,4.644C-50.012,114.706-48.193,115.877-45.174,118.248z"/>
		</g>
		<g>
			<path style="fill:#E1D1DF;" d="M51.272,255.627c0,0,1.353,7.863,5.315,6.61c3.961-1.252,23.807-13.736,24.416-14.734
				c0.609-0.999,8.251,7.767,8.251,7.767s-32.69,33.656-39.698,32.237c-7.009-1.418-14.547-12.566-15.204-21.749
				C33.695,256.575,51.272,255.627,51.272,255.627z"/>
			<path style="fill:#C7AFC7;" d="M40.911,281.337c-3.523-4.357-6.18-10.293-6.559-15.578c-0.657-9.184,16.92-10.131,16.92-10.131
				s0.847,4.92,3.161,6.356C48.768,266.466,40.425,274.313,40.911,281.337z"/>
			<path style="fill:#BF7A63;" d="M86.398,257.908c-2.309,0.315-8.559-1.79-7.59-11.996c0.327-3.446,2.28-3.992,2.082-10.047
				c-0.031-0.945,0.221-3.576,1.225-4.075c2.253-1.121,3.611,7.704,3.669,7.701c0.377-0.016,8.562-7.541,10.753-6.671
				c2.518,0.999-4.201,8.04-3.909,8.273c0.322,0.256,8.215-4.997,10.186-2.454c1.349,1.739-6.775,7.168-6.692,7.43
				c0.032,0.099,8.965-1.018,9.209,1.308c0.256,2.448-6.835,3.09-8.428,4.392c-0.144,0.118,7.036,1.805,6.272,3.607
				c-0.458,1.08-6.09,1.096-7.031,1.261C92.363,257.299,90.201,257.389,86.398,257.908L86.398,257.908z"/>
		</g>
		<g>
			<path style="fill:#724472;" d="M-12.608,170.818c0,0,8.734,10.622,21.149,23.413c6.85,7.058,31.42,23.598,35.821,32.04
				c1.746,3.351,10.06,32.229,10.11,32.858c0.286,3.598-15.592,7.878-15.592,7.878c-1.359-0.468-0.143,33.824-0.088,34.951
				c0.265,5.535-65.6-5.543-64.103-9.419c0.303-0.785,0.488-14.371,2.123-30.612c1.613-16.02,5.941-34.984,6.254-39.2
				c0.218-2.938-13.12-29.67-12.084-30.533C-21.781,186.167-17.164,179.966-12.608,170.818L-12.608,170.818z"/>
			<path style="fill:#653765;" d="M38.769,267.067c-0.026-1.355-0.04-2.709-0.001-4.065c0.077-2.761-0.057-5.523,0.044-8.281
				c0.148-4.038,0.652-8.123,1.135-12.134c0.342-2.835,0.873-5.675,1.704-8.411c0.273-0.898,0.601-1.774,0.908-2.66
				c0.108-0.311,0.206-0.624,0.304-0.939c0.051-0.165,0.183-0.66,0.174-0.487c-0.101,1.87-0.582,3.772-0.743,5.649
				c-0.313,3.638-0.259,7.301-0.087,10.944c0.154,3.262,0.37,6.609,1.494,9.706c0.292,0.806,0.615,1.741,1.558,1.932
				c0.482,0.098,1.762-0.288,2.087,0.098c0.409,0.484-0.019,1.874-0.058,2.409c-0.076,1.046,0.052,2.2,0.477,3.2
				c-4.226,1.723-8.885,2.979-8.885,2.979C38.839,266.993,38.803,267.014,38.769,267.067L38.769,267.067z"/>
			<path style="fill:#653765;" d="M-15.634,222.282c0,0,14.606-4.988,23.708-17.414C8.075,204.868,1.923,219.229-15.634,222.282z"/>
			<path style="fill:#653765;" d="M-22.712,257.701c9.513,9.478,36.706,34.37,61.232,35.792c0.128,4.64,0.254,8.118,0.271,8.464
				c0.265,5.535-65.6-5.543-64.103-9.419c0.303-0.785,0.488-14.371,2.123-30.612C-23.049,260.536-22.888,259.123-22.712,257.701z"/>
		</g>
		<g>
			<path style="fill:#E1D1DF;" d="M9.342,195.025c4.943,4.725,16.024,12.77,24.54,20.099c-5.083,8.122-12.28,14.605-14.367,7.359
				C17.355,214.99,12.482,202.756,9.342,195.025z"/>
			<g>
				<path style="fill:#BF7A63;" d="M15.458,189.341c-0.458,4.458-0.653,5.403-2.361,9.246c0,0,5.376,13.375,8.951,22.513
					c1.779,4.547,9.834-7.431,9.834-7.431c-1.966-4.339-2.274-10.672-1.679-15.556L15.458,189.341z"/>
				<path style="fill:#AB5D49;" d="M13.788,196.986c1.083-2.62,1.282-3.878,1.669-7.645l14.745,8.772
					c-0.32,2.629-0.379,5.679-0.058,8.611C23.848,205.821,17.778,200.934,13.788,196.986z"/>
			</g>
			<g>
				<path style="fill:#AB5D49;" d="M48.579,184.113c2.624,1.471,2.881,4.823,1.379,7.501c-1.501,2.678-4.062,3.844-6.801,2.379
					c-2.613-1.397-3.495-4.632-1.994-7.309C42.665,184.005,45.955,182.641,48.579,184.113z"/>
				<path style="fill:#BF7A63;" d="M29.324,149.672c11.95-0.057,19.407,12.267,19.473,25.829
					c0.065,13.562-10.162,23.524-18.829,23.95c-11.755,0.579-21.156-10.195-21.221-23.757
					C8.682,162.133,17.374,149.73,29.324,149.672z"/>
				<path style="fill:#BF7A63;" d="M7.642,176.388c3.098-0.015,5.028,2.635,5.042,5.552c0.014,2.917-1.689,5.082-4.885,5.156
					c-3.049,0.07-5.481-2.189-5.495-5.106C2.289,179.073,4.545,176.402,7.642,176.388z"/>
				<g>
					<path style="fill:#0D0D22;" d="M41.877,171.181c2.13,0.68,4.231,2.851,3.889,3.294c-0.336,0.435-1.748-1.704-3.878-2.385
						c-2.13-0.68-4.583,1.472-4.413,0.939C37.646,172.496,39.748,170.502,41.877,171.181z"/>
					<path style="fill:#0D0D22;" d="M24.118,166.062c-2.235-0.071-4.067,1.591-3.892,2.123c0.171,0.523,1.712-1.311,3.947-1.24
						c2.235,0.071,4.333,3.207,4.351,2.647C28.541,169.032,26.353,166.132,24.118,166.062z"/>
					<g>
						<path style="fill:#532423;" d="M25.791,192.214c-3.678-2.161-4.41-5.727-3.175-8.063c0.233-0.441,4.342,0.828,6.3,1.29
							c1.958,0.462,6.131,1.907,5.975,2.381C34.269,189.713,30.56,195.016,25.791,192.214z"/>
						<path style="fill:#E05357;" d="M22.385,188.317c0.344-0.022,0.689-0.026,1.035-0.017c2.611,0.072,5.174,1.039,7.077,2.841
							c0.326,0.309,0.626,0.638,0.889,0.991c-1.53,0.965-3.456,1.339-5.595,0.082C23.981,191.151,22.884,189.747,22.385,188.317z"/>
					</g>
					<path style="fill:#B5463C;" d="M29.533,179.986c0.351-2.189,1.975-3.742,3.338-3.335c1.609,0.481,2.471,4.892,0.705,5.906
						C30.701,184.209,29.356,181.092,29.533,179.986z"/>
					<path style="fill:#0D0D22;" d="M40.406,176.633c0.686,0.228,0.944,1.31,0.577,2.412c-0.367,1.102-1.223,1.812-1.908,1.583
						c-0.686-0.228-0.944-1.309-0.577-2.412C38.865,177.114,39.721,176.405,40.406,176.633z"/>
					<path style="fill:#0D0D22;" d="M24.549,172.671c0.722,0.042,1.253,1.017,1.186,2.178c-0.067,1.16-0.708,2.068-1.429,2.027
						c-0.722-0.042-1.253-1.018-1.186-2.178C23.186,173.538,23.826,172.63,24.549,172.671z"/>
				</g>
				<path style="fill:#AB5D49;" d="M8.807,177.433c-0.037-0.575-0.057-1.154-0.06-1.738c-0.065-13.562,8.627-25.965,20.577-26.023
					c11.542-0.055,18.892,11.439,19.44,24.444c-2.545-0.529-2.538-3.667-2.538-3.667c-0.944,2.335-2.706-1.873-2.706-1.873
					c1.005,8.218-6.728-4.453-6.728-4.453c0.79,7.159-6.24-2.387-6.24-2.387c-0.449,7.339-7.053-1.381-7.053-1.381
					c-9.89,13.877-6.308,4.39-7.725,5.726c-1.417,1.336-5.828,12.831-5.828,12.831L8.807,177.433z"/>
				<path style="fill:#58333A;" d="M9.818,181.413c0.375-0.62,0.793-4.911,1.961-8.552c2.509-7.815,5.758-12.566,5.758-12.566
					s-0.835,3.082-0.929,3.823c-0.035,0.274-0.293,1.757,0.348,1.682c0.653-0.077,1.233-0.853,1.616-1.296
					c1.472-1.702,2.701-3.635,3.965-5.493c0.195-0.287,1.444-2.743,1.895-2.749c0.119-0.002,0.458,1.7,0.491,1.829
					c0.302,1.203,0.874,3.725,2.367,4.096c1.631,0.405,1.925-3.695,3.091-3.275c0.499,0.179,0.578,1.396,0.719,1.799
					c0.414,1.187,1.995,3.475,3.462,3.291c0.866-0.108,1.314-1.309,1.492-2.041c0.088-0.367-0.149-1.308,0.177-1.118
					c0.504,0.293,0.746,1.552,0.959,2.051c0.79,1.84,1.72,3.544,3.1,5.009c0.315,0.335,0.944,1.214,1.466,1.254
					c0.264,0.02,0.429-1.573,0.451-1.737c0.195-1.48,0.007-3.847,0.666-5.21c0.07-0.144,0.565,3.688,0.908,4.697
					c0.232,0.682,0.919,1.676,1.77,1.548c0.192-0.029,1.361-0.765,1.503-0.556c0.601,0.876-0.024,2.754,0.149,3.811
					c0.219,1.331,1.508,1.667,1.828,2.584c0.472,1.356-0.126,3.703-0.397,5.04c-0.29,1.427-0.504,2.859-1.085,4.197
					c-0.193,0.443-0.436,1.267-0.395,1.307c0.014,0.013,0.633-0.711,0.658-0.749c0.313-0.478,0.634-0.95,0.947-1.427
					c1.036-1.58,1.299-3.974,1.713-5.778c1.42-6.191,1.277-14.319-1.795-20.013c-4.188-7.766-16.057-11.563-24.35-8.881
					c-4.467,1.445-9.114,3.955-11.482,8.06C4.228,170.988,9.818,181.413,9.818,181.413L9.818,181.413z"/>
			</g>
		</g>
		<path style="fill:#FFFFFF;" d="M34.599,182.014L34.599,182.014"/>
		<path style="fill:#E1D1DF;" d="M105.821,300.752c-0.033,0.013-0.065,0.027-0.099,0.041"/>
	</g>
	<g>
		<g>
			<g>
				<path style="fill:#3B3B58;" d="M148.989,333.281c2.398,3.054,0.945,11.366-5.485,19.061c-6.43,7.696-15.145,8.384-18.211,6.001
					c-1.537-1.195,1.789-6.738,8.219-14.433C139.943,336.214,147.181,330.977,148.989,333.281z"/>
				<path style="fill:#BABAD3;" d="M148.989,333.281c0,0-6.574,3.548-13.13,11.227c-8.041,9.418-10.565,13.835-10.565,13.835
					c-1.537-1.195,1.789-6.738,8.219-14.433C139.943,336.214,147.181,330.977,148.989,333.281z"/>
			</g>
			<g>
				<path style="fill:#3B3B58;" d="M214.995,423.178c0.687-0.558,2.189-3.449,3.359-3.602c3.965-0.517,10.851,2.628,16.874,7.492
					c2.885,2.329,3.734,6.262,4.906,8.844c1.997,4.401,1.785,8.581,0.315,10.538c-1.169,1.557-6.767-1.676-14.568-7.977
					C218.079,432.174,212.723,425.024,214.995,423.178z"/>
				<path style="fill:#BABAD3;" d="M214.995,423.178c0,0,3.658,6.514,11.445,12.94c9.552,7.882,14.009,10.332,14.009,10.332
					c-1.169,1.557-6.767-1.676-14.568-7.977C218.079,432.174,212.723,425.024,214.995,423.178L214.995,423.178z"/>
			</g>
			<g>
				<path style="fill:#9CC6D4;" d="M179.571,270.602c-0.242,1.931,1.477,14.341,1.834,18.984
					c0.983,12.779,3.719,37.839-1.032,50.128c-3.89,10.061-29.481-5.509-30.51-4.944c-1.017,0.56-7.601,17.359-6.919,18.251
					c4.052,5.298,13.699,9.051,19.474,11.829c7.689,3.7,19.928,7.46,28.595,3.638c6.803-3,11.274-8.363,15.982-23.097
					c6.199-19.4,8.292-45.509,8.292-45.509s7.341,34.382,7.432,64.888c0.086,28.322-6.215,54.856-5.775,55.662
					c1.22,2.237,17.754,9.301,19.913,8.506c1.637-0.603,7.035-31.168,8.076-42.377c3.178-34.21,5.196-71.138-0.352-105.179
					c-1.411-8.659-6.946-33.831-8.748-35.307C235.099,245.478,179.652,269.954,179.571,270.602L179.571,270.602z"/>
				<path style="fill:#7BACBA;" d="M180.691,282.804c-0.592-5.142-1.279-10.933-1.12-12.202
					c0.081-0.648,55.528-25.124,56.261-24.525c0.74,0.606,2.109,5.207,3.563,11.017
					C224.206,267.488,193.669,278.412,180.691,282.804z"/>
				<path style="fill:#6290AA;" d="M219.076,283.243c1.883-1.065,3.498-3.451,3.633-6.107c0.382-7.522-3.449-18.301-3.449-18.301
					c-0.129-0.366,0.062-0.768,0.428-0.898c0.365-0.129,0.768,0.062,0.897,0.428c0,0,3.921,11.099,3.527,18.842
					c-0.175,3.453-2.308,6.683-4.788,7.837l0.012,0.096c0.645,5.034,0.847,9.792,0.141,13.113c-0.08,0.38-0.454,0.622-0.834,0.541
					c-0.38-0.08-0.622-0.454-0.541-0.833c0.68-3.202,0.461-7.79-0.161-12.642c-1.473-11.484-5.241-24.435-5.241-24.435
					c-0.108-0.372,0.106-0.763,0.479-0.871c0.373-0.109,0.763,0.106,0.872,0.479C214.052,260.492,217.451,272.176,219.076,283.243
					L219.076,283.243z"/>
				<path style="fill:#7BACBA;" d="M215.546,301.143l-0.24-1.209c0,0,6.013-4.213,8.551-9.184
					c2.124-4.161,5.864,61.899-1.879,92.333c0.466-5.842,0.761-12.033,0.741-18.312C222.637,337.71,216.852,307.598,215.546,301.143
					z"/>
			</g>
		</g>
		<g>
			<path style="fill:#FDDAC3;" d="M197.689,143.725c7.588-6.553,25.647-78.547,24.939-81.428c-0.459-1.866,13.053,5.21,14.053,6.228
				c2.242,2.28-8.03,67.243-18.718,85.849C215.086,159.381,195.814,145.344,197.689,143.725z"/>
			<path style="fill:#EDBFA0;" d="M204.317,130.219c5.345,3.203,12.973,7.385,19.54,9.503c-1.896,6.035-3.888,11.16-5.894,14.653
				c-2.876,5.006-22.148-9.03-20.274-10.649C199.454,142.2,201.787,137.132,204.317,130.219L204.317,130.219z"/>
			<path style="fill:#FDDAC3;" d="M236.738,70.874c0,0-13.856-5.286-14.191-5.59c-2.262-2.06-2.951-4.708-4.985-7.032
				c-0.629-0.719-2.282-2.81-1.877-3.868c0.908-2.375,7.681,2.652,7.723,2.611c0.27-0.27,1.481-10.86,3.705-11.713
				c2.556-0.979,2.377,8.853,2.753,8.826c0.414-0.03,2.689-9.335,5.895-8.793c2.193,0.371-0.133,9.966,0.108,10.103
				c0.091,0.052,5.97-6.89,7.742-5.328c1.865,1.645-2.969,6.975-3.262,9.032c-0.027,0.187,6.466-3.472,7.131-1.61
				c0.399,1.117-3.778,4.982-4.365,5.748C240.756,66.34,239.211,67.886,236.738,70.874L236.738,70.874z"/>
		</g>
		<g>
			<path style="fill:#FDDAC3;" d="M140.769,221.39c0,0-8.504-18.981-8.629-18.927c-1.673,0.729-15.669,6.157-19.759,3.991
				c-11.827-6.265-16.377-26.912-20.715-30.969c-2.222-2.078-16.122-5.136-12.972,4.567c4.689,14.444,16.434,44.795,26.135,47.58
				C116.232,230.907,130.719,226.415,140.769,221.39z"/>
			<path style="fill:#EDBFA0;" d="M120.682,206.181c5.056-1.169,10.457-3.283,11.457-3.718c0.125-0.055,8.629,18.927,8.629,18.927
				c-6.023,3.011-13.639,5.831-21.23,6.903C122.938,220.947,122.029,212.197,120.682,206.181z"/>
			<path style="fill:#FDDAC3;" d="M81.171,187.118c0,0,11.238-9.676,11.449-10.076c1.429-2.705,1.178-5.43,2.302-8.306
				c0.347-0.89,1.192-3.418,0.452-4.276c-1.661-1.926-6.325,5.102-6.378,5.078c-0.345-0.162-5.08-9.712-7.462-9.759
				c-2.736-0.054,0.77,9.134,0.407,9.236c-0.4,0.113-5.699-7.868-8.53-6.27c-1.937,1.093,3.509,9.328,3.329,9.54
				c-0.068,0.08-7.954-4.454-9.091-2.383c-1.196,2.18,5.16,5.552,6.135,7.388c0.088,0.166-7.261-1.07-7.255,0.906
				c0.004,1.186,5.245,3.403,6.057,3.925C75.852,184.217,77.831,185.146,81.171,187.118z"/>
		</g>
		<g>
			<path style="fill:#F9B256;" d="M159.95,186.543c0,0,14.085-10.429,20.863-18.525c6.842-8.173,17.162-34.554,19.206-34.894
				c1.634-0.272,23.302,11.858,25.099,15.451c0.255,0.51-1.957,11.781-4.156,20.387c-1.894,7.417-4.275,16.213-3.968,16.752
				c3.638,6.402,25.029,68.235,22.008,68.266c-2.861,0.029-58.574,26.706-60.063,24.003c-0.415-0.754-12.432-52.569-14.573-53.588
				c-0.959-0.457-26.027,6.439-32.221,5.292c-0.917-0.17-11.135-25.233-10.062-25.606
				C127.043,202.357,151.394,192.791,159.95,186.543z"/>
			<path style="fill:#F29D4B;" d="M236.666,241.794c2.094,7.233,3.19,12.177,2.336,12.187c-2.861,0.029-58.574,26.706-60.063,24.003
				c-0.258-0.47-5.011-20.719-9.08-36.188C182.179,246.63,212.846,256.069,236.666,241.794L236.666,241.794z"/>
			<g>
				<path style="fill:#F8EDCA;" d="M127.469,202.053c1.837,5.255,4.867,13.574,7.859,20.258c1.241,2.773,2.454,5.262,3.568,7.078
					c-1.356,0.187-2.608,0.323-3.703,0.386c-0.971-1.737-1.987-3.809-2.996-6.063c-3.013-6.731-6.065-15.1-7.93-20.428
					C125.177,202.942,126.258,202.528,127.469,202.053L127.469,202.053z M198.723,134.649c5.126,3.076,17.391,10.659,25.883,17.728
					c-0.202,1.108-0.452,2.406-0.74,3.819c-8.136-7.176-21.35-15.306-26.788-18.546
					C197.701,136.435,198.255,135.413,198.723,134.649L198.723,134.649z"/>
				<path style="fill:#F8EDCA;" d="M182.72,165.426c4.111,2.366,6.772,6.832,7.777,11.625c1.278,6.099-0.189,12.601-4.303,15.807
					c-4.611,3.594-10.205,3.232-15.27,1.359c-5.152-1.906-9.707-5.352-11.806-7.089c0.292-0.198,0.569-0.393,0.832-0.585
					c0,0,0.757-0.56,2.004-1.522c2.105,1.681,5.909,4.407,10.16,5.979c3.965,1.466,8.361,1.966,11.972-0.847
					c3.206-2.499,4.051-7.644,3.054-12.398c-0.832-3.967-2.993-7.747-6.482-9.553l0.155-0.184
					C181.424,167.289,182.061,166.415,182.72,165.426L182.72,165.426z"/>
			</g>
		</g>
		<g>
			<path style="fill:#FDDAC3;" d="M159.461,171.903c1.882,4.118,4.263,8.216,4.744,12.438c0,0,9.178,7.364,17.732,1.908
				c4.655-2.97,1.217-12.788,1.217-12.788c-3.934-2.773-5.984-6.127-7.966-10.687L159.461,171.903L159.461,171.903z"/>
			<path style="fill:#EDBFA0;" d="M162.588,178.625c-0.933-2.251-2.103-4.484-3.127-6.723l15.727-9.13
				c1.326,3.049,2.681,5.56,4.61,7.717C174.643,176.15,167.592,178.037,162.588,178.625z"/>
		</g>
		<g>
			<g>
				<path style="fill:#EDBFA0;" d="M177.041,141.39c3.156-0.792,5.845,1.653,6.653,4.873c0.808,3.22-0.34,6.038-3.581,6.92
					c-3.092,0.841-6.187-1.046-6.995-4.267C172.31,145.697,173.885,142.182,177.041,141.39L177.041,141.39z"/>
				<path style="fill:#FDDAC3;" d="M136.329,128.608c9.354-8.918,24.627-4.763,34.748,5.852c10.121,10.615,9.216,26.039,2.719,32.81
					c-8.812,9.184-24.204,7.693-34.325-2.922C129.351,153.732,126.975,137.526,136.329,128.608z"/>
				<path style="fill:#FDDAC3;" d="M139.117,165.712c2.424-2.312,5.91-1.662,8.087,0.622c2.177,2.283,2.446,5.249-0.013,7.681
					c-2.346,2.32-5.935,2.349-8.112,0.066C136.902,171.797,136.693,168.023,139.117,165.712z"/>
				<path style="fill:#EDBFA0;" d="M139.643,164.524c-0.057-0.059-0.114-0.118-0.171-0.177
					c-10.121-10.615-12.497-26.821-3.143-35.739c9.354-8.918,24.368-4.764,34.489,5.85c0.984,1.032,1.866,2.109,2.65,3.219
					c-2.915-2.586-7.598-3.719-7.598-3.719c-1.819,1.381-18.42,4.165-18.42,4.165c0.772,1.884,1.651,2.232,1.651,2.232
					c-2.18,2.363-12.618,4.779-12.618,4.779c-0.25,6.382,5.361,19.346,5.361,19.346C141.15,164.524,140.414,164.543,139.643,164.524
					L139.643,164.524z"/>
			</g>
			<g>
				<path style="fill:#0D0D22;" d="M165.479,140.607c3.081-1.479,5.066,0.527,5.41,1.243c0.344,0.717-1.886-1.909-4.967-0.429
					c-3.082,1.479-2.44,4.669-2.784,3.952C162.793,144.657,162.397,142.087,165.479,140.607z"/>
				<path style="fill:#0D0D22;" d="M148.378,151.133c2.596-2.224,5.031-0.797,5.548-0.193c0.517,0.604-2.314-1.358-4.91,0.866
					c-2.596,2.224-1.154,5.14-1.671,4.537C146.827,155.738,145.782,153.357,148.378,151.133z"/>
				<path style="fill:#0D0D22;" d="M162.17,136.199c2.179-1.047,5.443-0.9,5.503-0.298c0.059,0.592-2.64-0.042-4.82,1.005
					c-2.179,1.046-2.51,4.561-2.773,4.015C159.818,140.374,159.99,137.245,162.17,136.199L162.17,136.199z"/>
				<path style="fill:#0D0D22;" d="M144.405,145.359c-1.81,1.604-2.016,4.271-1.484,4.56c0.523,0.284,0.373-2.302,2.182-3.906
					c1.81-1.603,5.788-0.695,5.386-1.149C150.088,144.411,146.214,143.756,144.405,145.359z"/>
				<g>
					<path style="fill:#753829;" d="M164.53,163.354c-4.496,1.031-7.72-1.229-8.483-3.983c-0.144-0.52,4.029-2.573,5.912-3.663
						c1.883-1.09,6.236-3.053,6.465-2.565C169.339,155.093,170.361,162.016,164.53,163.354z"/>
					<path style="fill:#E05357;" d="M158.959,162.819c0.254-0.272,0.523-0.532,0.801-0.781c2.107-1.882,4.839-3.025,7.674-3.021
						c0.485,0.001,0.966,0.036,1.434,0.118c-0.486,1.895-1.723,3.619-4.338,4.218C162.317,163.862,160.413,163.572,158.959,162.819z
						"/>
				</g>
				<path style="fill:#E57E6F;" d="M159.001,152.288c-1.35-1.982-1.226-4.408,0.148-5.1c1.622-0.816,5.575,2.012,4.939,4.12
					C163.054,154.74,159.683,153.289,159.001,152.288z"/>
			</g>
			<g>
				<path style="fill:#65439A;" d="M143.061,165.736c-0.858,0.129-8.503-16.155-8.149-23.002c0,0,13.163-0.525,16.881-3.335
					c0,0-6.199-0.755-6.781-1.694c0,0,17.381-3.166,20.133-4.511c2.753-1.346,9.696,5.141,10.932,8.836
					c0,0-0.98-19.727-15.974-21.181c0,0,0.625-2.422,3.505-4.089c0,0-21.271-7.318-31.248,11.085c0,0-2.346-3.783-1.162-5.449
					c0,0-5.628,4.104-2.858,13.357c0,0-6.634,6.112-6.195,8.923c0,0,3.163-2.706,5.691-2.441
					C127.836,142.236,120.393,162.249,143.061,165.736L143.061,165.736z"/>
				<path style="fill:#513688;" d="M135.487,147.531c1.715,7.527,6.664,17.86,7.524,18.197l0.05,0.007
					c-0.015,0.003-0.032,0-0.05-0.007c-12.574-1.951-15.855-8.999-16.29-14.87C129.231,149.998,132.228,148.892,135.487,147.531z
					 M168.783,124.642c6.735,6.135,7.294,17.388,7.294,17.388c-1.236-3.695-8.179-10.182-10.932-8.836
					c-1.002,0.49-3.943,1.221-7.278,1.953C161.985,132.069,165.764,128.573,168.783,124.642z M151.615,139.377
					c0.115,0.015,0.178,0.023,0.178,0.023c-0.467,0.353-1.084,0.671-1.804,0.955C150.532,140.035,151.074,139.709,151.615,139.377z"
					/>
			</g>
		</g>
		<path style="fill:#FFFFFF;" d="M165.605,150.296C165.605,150.296,165.605,150.296,165.605,150.296"/>
		<path style="fill:#E1D1DF;" d="M218.103,208.17c0.949,0.399,2.031,0.576,3.025,0.829"/>
	</g>
</g>
</svg>
